<svg width="38" height="38" viewBox="0 0 38 38" fill="none" xmlns="http://www.w3.org/2000/svg">
<path d="M19.0246 13.3281C22.1183 13.3281 24.6719 15.8817 24.6719 18.9754C24.6719 22.1183 22.1183 24.6228 19.0246 24.6228C15.8817 24.6228 13.3772 22.1183 13.3772 18.9754C13.3772 15.8817 15.8817 13.3281 19.0246 13.3281ZM19.0246 22.6585C21.0379 22.6585 22.6585 21.0379 22.6585 18.9754C22.6585 16.9621 21.0379 15.3415 19.0246 15.3415C16.9621 15.3415 15.3415 16.9621 15.3415 18.9754C15.3415 21.0379 17.0112 22.6585 19.0246 22.6585ZM26.1942 13.1317C26.1942 13.8683 25.6049 14.4576 24.8683 14.4576C24.1317 14.4576 23.5424 13.8683 23.5424 13.1317C23.5424 12.3951 24.1317 11.8058 24.8683 11.8058C25.6049 11.8058 26.1942 12.3951 26.1942 13.1317ZM29.9263 14.4576C30.0246 16.2746 30.0246 21.7254 29.9263 23.5424C29.8281 25.3103 29.4353 26.8326 28.1585 28.1585C26.8817 29.4353 25.3103 29.8281 23.5424 29.9263C21.7254 30.0246 16.2746 30.0246 14.4576 29.9263C12.6897 29.8281 11.1674 29.4353 9.84152 28.1585C8.56473 26.8326 8.17188 25.3103 8.07366 23.5424C7.97545 21.7254 7.97545 16.2746 8.07366 14.4576C8.17188 12.6897 8.56473 11.1183 9.84152 9.84152C11.1674 8.56473 12.6897 8.17188 14.4576 8.07366C16.2746 7.97545 21.7254 7.97545 23.5424 8.07366C25.3103 8.17188 26.8817 8.56473 28.1585 9.84152C29.4353 11.1183 29.8281 12.6897 29.9263 14.4576ZM27.5692 25.4576C28.1585 24.0335 28.0112 20.596 28.0112 18.9754C28.0112 17.404 28.1585 13.9665 27.5692 12.4933C27.1763 11.5603 26.4397 10.7746 25.5067 10.4308C24.0335 9.84152 20.596 9.98884 19.0246 9.98884C17.404 9.98884 13.9665 9.84152 12.5424 10.4308C11.5603 10.8237 10.8237 11.5603 10.4308 12.4933C9.84152 13.9665 9.98884 17.404 9.98884 18.9754C9.98884 20.596 9.84152 24.0335 10.4308 25.4576C10.8237 26.4397 11.5603 27.1763 12.5424 27.5692C13.9665 28.1585 17.404 28.0112 19.0246 28.0112C20.596 28.0112 24.0335 28.1585 25.5067 27.5692C26.4397 27.1763 27.2254 26.4397 27.5692 25.4576Z" fill="white"/>
</svg>
