<svg width="38" height="38" viewBox="0 0 38 38" fill="none" xmlns="http://www.w3.org/2000/svg">
<path d="M30.4735 12.8594C31 14.8281 31 19.0469 31 19.0469C31 19.0469 31 23.2188 30.4735 25.2344C30.2102 26.3594 29.3766 27.2031 28.3675 27.4844C26.4808 28 19.0219 28 19.0219 28C19.0219 28 11.5192 28 9.63254 27.4844C8.6234 27.2031 7.78976 26.3594 7.52651 25.2344C7 23.2188 7 19.0469 7 19.0469C7 19.0469 7 14.8281 7.52651 12.8594C7.78976 11.7344 8.6234 10.8438 9.63254 10.5625C11.5192 10 19.0219 10 19.0219 10C19.0219 10 26.4808 10 28.3675 10.5625C29.3766 10.8438 30.2102 11.7344 30.4735 12.8594ZM16.5649 22.8438L22.7952 19.0469L16.5649 15.25V22.8438Z" fill="white"/>
</svg>
